<svg width="57" height="28" viewBox="0 0 57 28" fill="none" xmlns="http://www.w3.org/2000/svg">
<path d="M57 12.8C57 8.31958 57 6.07937 56.1281 4.36808C55.3611 2.86278 54.1372 1.63893 52.6319 0.871948C50.9206 0 48.6804 0 44.2 0H12.8C8.31958 0 6.07937 0 4.36808 0.871948C2.86278 1.63893 1.63893 2.86278 0.871948 4.36808C0 6.07937 0 8.31958 0 12.8V15.2C0 19.6804 0 21.9206 0.871948 23.6319C1.63893 25.1372 2.86278 26.3611 4.36808 27.1281C6.07937 28 8.31958 28 12.8 28H44.2C48.6804 28 50.9206 28 52.6319 27.1281C54.1372 26.3611 55.3611 25.1372 56.1281 23.6319C57 21.9206 57 19.6804 57 15.2V12.8Z" fill="url(#paint0_linear_84659_1102)"/>
<defs>
<linearGradient id="paint0_linear_84659_1102" x1="28.5" y1="0" x2="28.5" y2="15.3125" gradientUnits="userSpaceOnUse">
<stop stop-color="white" stop-opacity="0.2"/>
<stop offset="1" stop-color="white" stop-opacity="0"/>
</linearGradient>
</defs>
</svg>
