<svg width="98" height="28" viewBox="0 0 98 28" fill="none" xmlns="http://www.w3.org/2000/svg">
<g filter="url(#filter0_iiii_84654_1096)">
<path d="M97.5 13.3C97.5 8.81958 97.5 6.57937 96.6281 4.86808C95.8611 3.36278 94.6372 2.13893 93.1319 1.37195C91.4206 0.5 89.1804 0.5 84.7 0.5H13.3C8.81958 0.5 6.57937 0.5 4.86808 1.37195C3.36278 2.13893 2.13893 3.36278 1.37195 4.86808C0.5 6.57937 0.5 8.81958 0.5 13.3V14.7C0.5 19.1804 0.5 21.4206 1.37195 23.1319C2.13893 24.6372 3.36278 25.8611 4.86808 26.6281C6.57937 27.5 8.81958 27.5 13.3 27.5H84.7C89.1804 27.5 91.4206 27.5 93.1319 26.6281C94.6372 25.8611 95.8611 24.6372 96.6281 23.1319C97.5 21.4206 97.5 19.1804 97.5 14.7V13.3Z" fill="black" fill-opacity="0.01"/>
</g>
<defs>
<filter id="filter0_iiii_84654_1096" x="0.5" y="0.5" width="97" height="27" filterUnits="userSpaceOnUse" color-interpolation-filters="sRGB">
<feFlood flood-opacity="0" result="BackgroundImageFix"/>
<feBlend mode="normal" in="SourceGraphic" in2="BackgroundImageFix" result="shape"/>
<feColorMatrix in="SourceAlpha" type="matrix" values="0 0 0 0 0 0 0 0 0 0 0 0 0 0 0 0 0 0 127 0" result="hardAlpha"/>
<feOffset dy="1"/>
<feComposite in2="hardAlpha" operator="arithmetic" k2="-1" k3="1"/>
<feColorMatrix type="matrix" values="0 0 0 0 1 0 0 0 0 1 0 0 0 0 1 0 0 0 0.48 0"/>
<feBlend mode="normal" in2="shape" result="effect1_innerShadow_84654_1096"/>
<feColorMatrix in="SourceAlpha" type="matrix" values="0 0 0 0 0 0 0 0 0 0 0 0 0 0 0 0 0 0 127 0" result="hardAlpha"/>
<feOffset dx="-1"/>
<feComposite in2="hardAlpha" operator="arithmetic" k2="-1" k3="1"/>
<feColorMatrix type="matrix" values="0 0 0 0 1 0 0 0 0 1 0 0 0 0 1 0 0 0 0.2 0"/>
<feBlend mode="normal" in2="effect1_innerShadow_84654_1096" result="effect2_innerShadow_84654_1096"/>
<feColorMatrix in="SourceAlpha" type="matrix" values="0 0 0 0 0 0 0 0 0 0 0 0 0 0 0 0 0 0 127 0" result="hardAlpha"/>
<feOffset dx="1"/>
<feComposite in2="hardAlpha" operator="arithmetic" k2="-1" k3="1"/>
<feColorMatrix type="matrix" values="0 0 0 0 1 0 0 0 0 1 0 0 0 0 1 0 0 0 0.2 0"/>
<feBlend mode="normal" in2="effect2_innerShadow_84654_1096" result="effect3_innerShadow_84654_1096"/>
<feColorMatrix in="SourceAlpha" type="matrix" values="0 0 0 0 0 0 0 0 0 0 0 0 0 0 0 0 0 0 127 0" result="hardAlpha"/>
<feOffset dy="-1.5"/>
<feComposite in2="hardAlpha" operator="arithmetic" k2="-1" k3="1"/>
<feColorMatrix type="matrix" values="0 0 0 0 0 0 0 0 0 0 0 0 0 0 0 0 0 0 0.25 0"/>
<feBlend mode="normal" in2="effect3_innerShadow_84654_1096" result="effect4_innerShadow_84654_1096"/>
</filter>
</defs>
</svg>
