<svg width="67" height="28" viewBox="0 0 67 28" fill="none" xmlns="http://www.w3.org/2000/svg">
<g filter="url(#filter0_iiii_84590_983)">
<path d="M66.5 13.3C66.5 8.81958 66.5 6.57937 65.6281 4.86808C64.8611 3.36278 63.6372 2.13893 62.1319 1.37195C60.4206 0.5 58.1804 0.5 53.7 0.5H13.3C8.81958 0.5 6.57937 0.5 4.86808 1.37195C3.36278 2.13893 2.13893 3.36278 1.37195 4.86808C0.5 6.57937 0.5 8.81958 0.5 13.3V14.7C0.5 19.1804 0.5 21.4206 1.37195 23.1319C2.13893 24.6372 3.36278 25.8611 4.86808 26.6281C6.57937 27.5 8.81958 27.5 13.3 27.5H53.7C58.1804 27.5 60.4206 27.5 62.1319 26.6281C63.6372 25.8611 64.8611 24.6372 65.6281 23.1319C66.5 21.4206 66.5 19.1804 66.5 14.7V13.3Z" fill="black" fill-opacity="0.01"/>
</g>
<defs>
<filter id="filter0_iiii_84590_983" x="0.5" y="0.5" width="66" height="27" filterUnits="userSpaceOnUse" color-interpolation-filters="sRGB">
<feFlood flood-opacity="0" result="BackgroundImageFix"/>
<feBlend mode="normal" in="SourceGraphic" in2="BackgroundImageFix" result="shape"/>
<feColorMatrix in="SourceAlpha" type="matrix" values="0 0 0 0 0 0 0 0 0 0 0 0 0 0 0 0 0 0 127 0" result="hardAlpha"/>
<feOffset dy="1"/>
<feComposite in2="hardAlpha" operator="arithmetic" k2="-1" k3="1"/>
<feColorMatrix type="matrix" values="0 0 0 0 1 0 0 0 0 1 0 0 0 0 1 0 0 0 0.48 0"/>
<feBlend mode="normal" in2="shape" result="effect1_innerShadow_84590_983"/>
<feColorMatrix in="SourceAlpha" type="matrix" values="0 0 0 0 0 0 0 0 0 0 0 0 0 0 0 0 0 0 127 0" result="hardAlpha"/>
<feOffset dx="-1"/>
<feComposite in2="hardAlpha" operator="arithmetic" k2="-1" k3="1"/>
<feColorMatrix type="matrix" values="0 0 0 0 1 0 0 0 0 1 0 0 0 0 1 0 0 0 0.2 0"/>
<feBlend mode="normal" in2="effect1_innerShadow_84590_983" result="effect2_innerShadow_84590_983"/>
<feColorMatrix in="SourceAlpha" type="matrix" values="0 0 0 0 0 0 0 0 0 0 0 0 0 0 0 0 0 0 127 0" result="hardAlpha"/>
<feOffset dx="1"/>
<feComposite in2="hardAlpha" operator="arithmetic" k2="-1" k3="1"/>
<feColorMatrix type="matrix" values="0 0 0 0 1 0 0 0 0 1 0 0 0 0 1 0 0 0 0.2 0"/>
<feBlend mode="normal" in2="effect2_innerShadow_84590_983" result="effect3_innerShadow_84590_983"/>
<feColorMatrix in="SourceAlpha" type="matrix" values="0 0 0 0 0 0 0 0 0 0 0 0 0 0 0 0 0 0 127 0" result="hardAlpha"/>
<feOffset dy="-1.5"/>
<feComposite in2="hardAlpha" operator="arithmetic" k2="-1" k3="1"/>
<feColorMatrix type="matrix" values="0 0 0 0 0 0 0 0 0 0 0 0 0 0 0 0 0 0 0.25 0"/>
<feBlend mode="normal" in2="effect3_innerShadow_84590_983" result="effect4_innerShadow_84590_983"/>
</filter>
</defs>
</svg>
