<svg width="67" height="28" viewBox="0 0 67 28" fill="none" xmlns="http://www.w3.org/2000/svg">
<path d="M0 8C0 3.58172 3.58172 0 8 0H59C63.4183 0 67 3.58172 67 8V20C67 24.4183 63.4183 28 59 28H8C3.58172 28 0 24.4183 0 20V8Z" fill="#E51C00"/>
<path d="M16.5703 18.2109C14.1738 18.2109 12.6855 16.5117 12.6855 13.7812V13.7695C12.6855 11.0273 14.168 9.33398 16.5645 9.33398C18.4863 9.33398 19.9453 10.5527 20.1445 12.2812V12.3281H18.6621L18.6562 12.3047C18.4395 11.3027 17.6309 10.6406 16.5645 10.6406C15.1289 10.6406 14.2324 11.8418 14.2324 13.7637V13.7754C14.2324 15.7031 15.1289 16.9043 16.5703 16.9043C17.6426 16.9043 18.4395 16.3066 18.6562 15.375L18.6621 15.3457H20.1445V15.3867C19.9219 17.0801 18.5215 18.2109 16.5703 18.2109ZM21.6797 18V11.5957H23.1387V12.5801H23.2383C23.4551 11.8945 24.041 11.4902 24.8848 11.4902C25.1074 11.4902 25.3359 11.5195 25.4766 11.5605V12.8672C25.2422 12.8203 25.002 12.7852 24.75 12.7852C23.7773 12.7852 23.1387 13.3652 23.1387 14.2793V18H21.6797ZM27.4219 10.5234C26.9414 10.5234 26.5488 10.1426 26.5488 9.66211C26.5488 9.1875 26.9414 8.80078 27.4219 8.80078C27.8965 8.80078 28.2891 9.1875 28.2891 9.66211C28.2891 10.1426 27.8965 10.5234 27.4219 10.5234ZM26.6895 18V11.5957H28.1484V18H26.6895ZM32.4609 18.0293C30.9902 18.0293 30.3867 17.5371 30.3867 16.3008V12.7266H29.3906V11.5957H30.3867V10.0254H31.8691V11.5957H33.2227V12.7266H31.8691V15.9551C31.8691 16.5938 32.1211 16.8633 32.7305 16.8633C32.9355 16.8633 33.0469 16.8574 33.2227 16.8398V17.9648C33.0117 18.0059 32.7422 18.0293 32.4609 18.0293ZM35.4258 10.5234C34.9453 10.5234 34.5527 10.1426 34.5527 9.66211C34.5527 9.1875 34.9453 8.80078 35.4258 8.80078C35.9004 8.80078 36.293 9.1875 36.293 9.66211C36.293 10.1426 35.9004 10.5234 35.4258 10.5234ZM34.6934 18V11.5957H36.1523V18H34.6934ZM40.6934 18.1289C38.7656 18.1289 37.6289 16.8809 37.6289 14.7891V14.7773C37.6289 12.709 38.7598 11.4727 40.6875 11.4727C42.334 11.4727 43.3184 12.3867 43.4824 13.7109V13.7344H42.1055L42.0996 13.7168C41.9648 13.0957 41.4902 12.6504 40.6934 12.6504C39.6973 12.6504 39.1113 13.4355 39.1113 14.7773V14.7891C39.1113 16.1484 39.7031 16.9453 40.6934 16.9453C41.4492 16.9453 41.9121 16.5996 42.0938 15.9258L42.1055 15.9023L43.4824 15.8965L43.4707 15.9434C43.2598 17.2559 42.3164 18.1289 40.6934 18.1289ZM46.6172 18.1055C45.3984 18.1055 44.5137 17.3555 44.5137 16.1895V16.1777C44.5137 15.0352 45.3867 14.3672 46.9453 14.2734L48.5918 14.1738V13.623C48.5918 12.9844 48.1758 12.6328 47.3906 12.6328C46.7227 12.6328 46.2891 12.873 46.1426 13.2949L46.1367 13.3184H44.7598L44.7656 13.2656C44.9062 12.1875 45.9375 11.4727 47.4609 11.4727C49.1074 11.4727 50.0332 12.2695 50.0332 13.623V18H48.5918V17.1211H48.4922C48.1406 17.7422 47.4609 18.1055 46.6172 18.1055ZM45.9551 16.1191C45.9551 16.6641 46.418 16.9863 47.0625 16.9863C47.9414 16.9863 48.5918 16.4121 48.5918 15.6504V15.1348L47.1504 15.2285C46.3359 15.2812 45.9551 15.5801 45.9551 16.1074V16.1191ZM51.8438 18V9.11719H53.3027V18H51.8438Z" fill="white"/>
<g filter="url(#filter0_iiii_110886_7985)">
<path d="M66.5 13.3C66.5 8.81958 66.5 6.57937 65.6281 4.86808C64.8611 3.36278 63.6372 2.13893 62.1319 1.37195C60.4206 0.5 58.1804 0.5 53.7 0.5H13.3C8.81958 0.5 6.57937 0.5 4.86808 1.37195C3.36278 2.13893 2.13893 3.36278 1.37195 4.86808C0.5 6.57937 0.5 8.81958 0.5 13.3V14.7C0.5 19.1804 0.5 21.4206 1.37195 23.1319C2.13893 24.6372 3.36278 25.8611 4.86808 26.6281C6.57937 27.5 8.81958 27.5 13.3 27.5H53.7C58.1804 27.5 60.4206 27.5 62.1319 26.6281C63.6372 25.8611 64.8611 24.6372 65.6281 23.1319C66.5 21.4206 66.5 19.1804 66.5 14.7V13.3Z" fill="black" fill-opacity="0.01"/>
</g>
<defs>
<filter id="filter0_iiii_110886_7985" x="0.5" y="0.5" width="66" height="27" filterUnits="userSpaceOnUse" color-interpolation-filters="sRGB">
<feFlood flood-opacity="0" result="BackgroundImageFix"/>
<feBlend mode="normal" in="SourceGraphic" in2="BackgroundImageFix" result="shape"/>
<feColorMatrix in="SourceAlpha" type="matrix" values="0 0 0 0 0 0 0 0 0 0 0 0 0 0 0 0 0 0 127 0" result="hardAlpha"/>
<feOffset dy="1"/>
<feComposite in2="hardAlpha" operator="arithmetic" k2="-1" k3="1"/>
<feColorMatrix type="matrix" values="0 0 0 0 1 0 0 0 0 1 0 0 0 0 1 0 0 0 0.48 0"/>
<feBlend mode="normal" in2="shape" result="effect1_innerShadow_110886_7985"/>
<feColorMatrix in="SourceAlpha" type="matrix" values="0 0 0 0 0 0 0 0 0 0 0 0 0 0 0 0 0 0 127 0" result="hardAlpha"/>
<feOffset dx="-1"/>
<feComposite in2="hardAlpha" operator="arithmetic" k2="-1" k3="1"/>
<feColorMatrix type="matrix" values="0 0 0 0 1 0 0 0 0 1 0 0 0 0 1 0 0 0 0.2 0"/>
<feBlend mode="normal" in2="effect1_innerShadow_110886_7985" result="effect2_innerShadow_110886_7985"/>
<feColorMatrix in="SourceAlpha" type="matrix" values="0 0 0 0 0 0 0 0 0 0 0 0 0 0 0 0 0 0 127 0" result="hardAlpha"/>
<feOffset dx="1"/>
<feComposite in2="hardAlpha" operator="arithmetic" k2="-1" k3="1"/>
<feColorMatrix type="matrix" values="0 0 0 0 1 0 0 0 0 1 0 0 0 0 1 0 0 0 0.2 0"/>
<feBlend mode="normal" in2="effect2_innerShadow_110886_7985" result="effect3_innerShadow_110886_7985"/>
<feColorMatrix in="SourceAlpha" type="matrix" values="0 0 0 0 0 0 0 0 0 0 0 0 0 0 0 0 0 0 127 0" result="hardAlpha"/>
<feOffset dy="-1.5"/>
<feComposite in2="hardAlpha" operator="arithmetic" k2="-1" k3="1"/>
<feColorMatrix type="matrix" values="0 0 0 0 0 0 0 0 0 0 0 0 0 0 0 0 0 0 0.25 0"/>
<feBlend mode="normal" in2="effect3_innerShadow_110886_7985" result="effect4_innerShadow_110886_7985"/>
</filter>
</defs>
</svg>
