<svg width="21" height="20" viewBox="0 0 21 20" fill="none" xmlns="http://www.w3.org/2000/svg">
<path d="M12 8.25C12.4142 8.25 12.75 8.58579 12.75 9V13.25C12.75 13.6642 12.4142 14 12 14C11.5858 14 11.25 13.6642 11.25 13.25V9C11.25 8.58579 11.5858 8.25 12 8.25Z" fill="#8E1F0B"/>
<path d="M9.75 9C9.75 8.58579 9.41421 8.25 9 8.25C8.58579 8.25 8.25 8.58579 8.25 9V13.25C8.25 13.6642 8.58579 14 9 14C9.41421 14 9.75 13.6642 9.75 13.25V9Z" fill="#8E1F0B"/>
<path fill-rule="evenodd" clip-rule="evenodd" d="M7.74994 5.25C7.74994 3.73122 8.98116 2.5 10.4999 2.5C12.0187 2.5 13.2499 3.73122 13.2499 5.25H16.25C16.6642 5.25 17 5.58579 17 6C17 6.41421 16.6642 6.75 16.25 6.75H15.4999L15.4998 12.2001C15.4998 13.8802 15.4997 14.7203 15.1728 15.362C14.8851 15.9265 14.4262 16.3854 13.8617 16.673C13.22 17 12.3799 17 10.6997 17H10.3C8.61978 17 7.77968 17 7.13793 16.673C6.57343 16.3854 6.11448 15.9264 5.82687 15.3619C5.49989 14.7202 5.4999 13.8801 5.49994 12.1999L5.50005 6.75H4.75C4.33579 6.75 4 6.41421 4 6C4 5.58579 4.33579 5.25 4.75 5.25H7.74994ZM9.24994 5.25C9.24994 4.55964 9.80958 4 10.4999 4C11.1903 4 11.7499 4.55964 11.7499 5.25H9.24994ZM7.00007 6.75H13.9999L13.9998 12.2001C13.9998 13.0649 13.9986 13.6233 13.9639 14.0483C13.9305 14.4558 13.874 14.6068 13.8362 14.681C13.6924 14.9632 13.463 15.1927 13.1807 15.3365C13.1065 15.3743 12.9555 15.4308 12.548 15.4641C12.123 15.4988 11.5646 15.5 10.6997 15.5H10.3C9.43513 15.5 8.87671 15.4988 8.45169 15.4641C8.04418 15.4308 7.8931 15.3743 7.81893 15.3365C7.53668 15.1927 7.30721 14.9632 7.1634 14.681C7.12561 14.6068 7.06909 14.4557 7.03581 14.0482C7.00109 13.6232 6.99994 13.0648 6.99995 12.1999L7.00007 6.75Z" fill="#8E1F0B"/>
</svg>
