<svg width="21" height="20" viewBox="0 0 21 20" fill="none" xmlns="http://www.w3.org/2000/svg">
<path d="M9.25 8.5C9.66421 8.5 10 8.83579 10 9.25V10.5H11.25C11.6642 10.5 12 10.8358 12 11.25C12 11.6642 11.6642 12 11.25 12H10V13.25C10 13.6642 9.66421 14 9.25 14C8.83579 14 8.5 13.6642 8.5 13.25V12H7.25C6.83579 12 6.5 11.6642 6.5 11.25C6.5 10.8358 6.83579 10.5 7.25 10.5H8.5V9.25C8.5 8.83579 8.83579 8.5 9.25 8.5Z" fill="#4A4A4A"/>
<path fill-rule="evenodd" clip-rule="evenodd" d="M9.25 3.5C7.81198 3.5 6.63175 4.60376 6.5103 6.0103C5.10376 6.13175 4 7.31198 4 8.75V13.75C4 15.2688 5.23122 16.5 6.75 16.5H11.75C13.188 16.5 14.3682 15.3962 14.4897 13.9897C15.8962 13.8683 17 12.688 17 11.25V6.25C17 4.73122 15.7688 3.5 14.25 3.5H9.25ZM11.75 6H8.025C8.14082 5.42944 8.64526 5 9.25 5H14.25C14.9404 5 15.5 5.55964 15.5 6.25V11.25C15.5 11.8547 15.0706 12.3592 14.5 12.475V8.75C14.5 7.23122 13.2688 6 11.75 6ZM6.75 7.5C6.05964 7.5 5.5 8.05964 5.5 8.75V13.75C5.5 14.4404 6.05964 15 6.75 15H11.75C12.4404 15 13 14.4404 13 13.75V8.75C13 8.05964 12.4404 7.5 11.75 7.5H6.75Z" fill="#4A4A4A"/>
</svg>
