<svg width="21" height="20" viewBox="0 0 21 20" fill="none" xmlns="http://www.w3.org/2000/svg">
<path fill-rule="evenodd" clip-rule="evenodd" d="M16.1553 4.34427C15.103 3.29197 13.3969 3.29198 12.3446 4.3443L11.7461 4.94281L11.7374 4.93406L10.6767 5.99472L10.6855 6.00349L4.80543 11.8837C4.28972 12.3995 4 13.0989 4 13.8283V15.7498C4 15.9488 4.07902 16.1395 4.21967 16.2802C4.36032 16.4208 4.55109 16.4998 4.75 16.4998L6.67155 16.4998C7.40091 16.4998 8.1004 16.2101 8.61613 15.6944L16.1554 8.15489C17.2076 7.1026 17.2076 5.39654 16.1553 4.34427ZM11.7462 7.06415L5.8661 12.9444C5.63169 13.1788 5.5 13.4967 5.5 13.8283L5.5 14.9998H6.67155C7.00308 14.9998 7.32103 14.8681 7.55545 14.6337L13.4355 8.75348L11.7462 7.06415ZM14.4961 7.6928L15.0947 7.09425C15.5612 6.62775 15.5612 5.87142 15.0947 5.40493C14.6282 4.93842 13.8718 4.93843 13.4053 5.40494L12.8068 6.00347L14.4961 7.6928Z" fill="#4A4A4A"/>
</svg>
