<svg width="21" height="20" viewBox="0 0 21 20" fill="none" xmlns="http://www.w3.org/2000/svg">
<path fill-rule="evenodd" clip-rule="evenodd" d="M6.60222 8.22354C6.5 8.60504 6.5 9.07003 6.5 10C6.5 10.93 6.5 11.395 6.60222 11.7765C6.87962 12.8117 7.68827 13.6204 8.72354 13.8978C9.10504 14 9.57003 14 10.5 14C11.43 14 11.895 14 12.2765 13.8978C13.3117 13.6204 14.1204 12.8117 14.3978 11.7765C14.5 11.395 14.5 10.93 14.5 10C14.5 9.07003 14.5 8.60504 14.3978 8.22354C14.1204 7.18827 13.3117 6.37962 12.2765 6.10222C11.895 6 11.43 6 10.5 6C9.57003 6 9.10504 6 8.72354 6.10222C7.68827 6.37962 6.87962 7.18827 6.60222 8.22354ZM9.04707 12.6904C9.22954 12.7393 9.48955 12.75 10.5 12.75C11.5104 12.75 11.7705 12.7393 11.9529 12.6904C12.5568 12.5286 13.0286 12.0568 13.1904 11.4529C13.2393 11.2705 13.25 11.0104 13.25 10C13.25 8.98955 13.2393 8.72954 13.1904 8.54707C13.0286 7.94316 12.5568 7.47145 11.9529 7.30963C11.7705 7.26074 11.5104 7.25 10.5 7.25C9.48955 7.25 9.22954 7.26074 9.04707 7.30963C8.44316 7.47145 7.97145 7.94316 7.80963 8.54707C7.76074 8.72954 7.75 8.98955 7.75 10C7.75 11.0104 7.76074 11.2705 7.80963 11.4529C7.97145 12.0568 8.44316 12.5286 9.04707 12.6904Z" fill="#616161"/>
</svg>
