<svg width="21" height="20" viewBox="0 0 21 20" fill="none" xmlns="http://www.w3.org/2000/svg">
<path fill-rule="evenodd" clip-rule="evenodd" d="M9.38801 6.01362L9.37085 5.99646L9.35185 6.01546C9.09825 6.02902 8.90178 6.05446 8.72354 6.10222C7.68827 6.37962 6.87962 7.18827 6.60222 8.22354C6.5 8.60504 6.5 9.07003 6.5 10C6.5 10.93 6.5 11.395 6.60222 11.7765C6.87962 12.8117 7.68827 13.6204 8.72354 13.8978C9.10504 14 9.57003 14 10.5 14C11.43 14 11.895 14 12.2765 13.8978C13.3117 13.6204 14.1204 12.8117 14.3978 11.7765C14.5 11.395 14.5 10.93 14.5 10C14.5 9.07003 14.5 8.60504 14.3978 8.22354C14.1204 7.18827 13.3117 6.37962 12.2765 6.10222C11.895 6 11.43 6 10.5 6C10.025 6 9.67125 6 9.38801 6.01362ZM8.94646 7.33984C8.48089 7.49499 8.10432 7.83786 7.90474 8.28044L12.2196 12.5953C12.6621 12.3957 13.005 12.0191 13.1602 11.5535L8.94646 7.33984ZM13.2499 9.87555L10.6244 7.25006C11.5323 7.25098 11.7782 7.26281 11.9529 7.30963C12.5568 7.47145 13.0286 7.94316 13.1904 8.54707C13.2372 8.72181 13.249 8.96766 13.2499 9.87555ZM9.04707 12.6904C9.22954 12.7393 9.48955 12.75 10.5 12.75L10.6065 12.75L7.75004 9.89351L7.75 10C7.75 11.0104 7.76074 11.2705 7.80963 11.4529C7.97145 12.0568 8.44316 12.5286 9.04707 12.6904Z" fill="#616161"/>
</svg>
