<svg width="68" height="14" viewBox="0 0 68 14" fill="none" xmlns="http://www.w3.org/2000/svg">
<path fill-rule="evenodd" clip-rule="evenodd" d="M46.0894 1.15991H60.9106C62.1587 1.15991 62.6113 1.28987 63.0676 1.5339C63.5239 1.77793 63.882 2.13603 64.126 2.59233C64.37 3.04862 64.5 3.50122 64.5 4.74935V9.07047C64.5 10.3186 64.37 10.7712 64.126 11.2275C63.882 11.6838 63.5239 12.0419 63.0676 12.2859C62.6113 12.53 62.1587 12.6599 60.9106 12.6599H46.0894C44.8413 12.6599 44.3887 12.53 43.9324 12.2859C43.4761 12.0419 43.118 11.6838 42.874 11.2275C42.63 10.7712 42.5 10.3186 42.5 9.07047V4.74935C42.5 3.50122 42.63 3.04862 42.874 2.59233C43.118 2.13603 43.4761 1.77793 43.9324 1.5339C44.3887 1.28987 44.8413 1.15991 46.0894 1.15991ZM46.0894 2.15991C45.1025 2.15991 44.7579 2.22645 44.404 2.41571C44.122 2.56654 43.9066 2.7819 43.7558 3.06393C43.5665 3.41782 43.5 3.76237 43.5 4.74935V9.07047C43.5 10.0575 43.5665 10.402 43.7558 10.7559C43.9066 11.0379 44.122 11.2533 44.404 11.4041C44.7579 11.5934 45.1025 11.6599 46.0894 11.6599H60.9106C61.8975 11.6599 62.2421 11.5934 62.596 11.4041C62.878 11.2533 63.0934 11.0379 63.2442 10.7559C63.4335 10.402 63.5 10.0575 63.5 9.07047V4.74935C63.5 3.76237 63.4335 3.41782 63.2442 3.06393C63.0934 2.7819 62.878 2.56654 62.596 2.41571C62.2421 2.22645 61.8975 2.15991 60.9106 2.15991H46.0894ZM67 6.84991C67 8.08649 65.5 8.84991 65.5 8.84991V4.84991C65.5 4.84991 67 5.61334 67 6.84991Z" fill="black" fill-opacity="0.36"/>
<rect x="44.5" y="3.07654" width="18" height="7.66667" rx="1.6" fill="black"/>
<path fill-rule="evenodd" clip-rule="evenodd" d="M14.123 2.56587C14.1 2.68179 14.1 2.82118 14.1 3.09997V10.8C14.1 11.0788 14.1 11.2182 14.123 11.3341C14.2177 11.8101 14.5899 12.1822 15.0659 12.2769C15.1818 12.3 15.3212 12.3 15.6 12.3C15.8788 12.3 16.0182 12.3 16.1341 12.2769C16.6101 12.1822 16.9822 11.8101 17.0769 11.3341C17.1 11.2182 17.1 11.0788 17.1 10.8V3.09998C17.1 2.82118 17.1 2.68179 17.0769 2.56587C16.9822 2.08984 16.6101 1.71772 16.1341 1.62303C16.0182 1.59998 15.8788 1.59998 15.6 1.59998C15.3212 1.59998 15.1818 1.59998 15.0659 1.62303C14.5899 1.71772 14.2177 2.08984 14.123 2.56587ZM9.39999 5.49998C9.39999 5.22118 9.39999 5.08179 9.42305 4.96587C9.51774 4.48984 9.88986 4.11772 10.3659 4.02303C10.4818 3.99998 10.6212 3.99998 10.9 3.99998C11.1788 3.99998 11.3182 3.99998 11.4341 4.02303C11.9101 4.11772 12.2822 4.48984 12.3769 4.96587C12.4 5.08179 12.4 5.22118 12.4 5.49998V10.8C12.4 11.0788 12.4 11.2182 12.3769 11.3341C12.2822 11.8101 11.9101 12.1822 11.4341 12.2769C11.3182 12.3 11.1788 12.3 10.9 12.3C10.6212 12.3 10.4818 12.3 10.3659 12.2769C9.88986 12.1822 9.51774 11.8101 9.42305 11.3341C9.39999 11.2182 9.39999 11.0788 9.39999 10.8V5.49998ZM4.82305 7.26587C4.79999 7.38179 4.79999 7.52119 4.79999 7.79998V10.8C4.79999 11.0788 4.79999 11.2182 4.82305 11.3341C4.91773 11.8101 5.28985 12.1822 5.76588 12.2769C5.8818 12.3 6.02119 12.3 6.29999 12.3C6.57878 12.3 6.71818 12.3 6.8341 12.2769C7.31012 12.1822 7.68224 11.8101 7.77693 11.3341C7.79999 11.2182 7.79999 11.0788 7.79999 10.8V7.79998C7.79999 7.52119 7.79999 7.38179 7.77693 7.26587C7.68224 6.78984 7.31012 6.41773 6.8341 6.32304C6.71818 6.29998 6.57878 6.29998 6.29999 6.29998C6.02119 6.29998 5.8818 6.29998 5.76588 6.32304C5.28985 6.41773 4.91773 6.78984 4.82305 7.26587ZM0.0230577 9.26587C0 9.38179 0 9.52119 0 9.79998V10.8C0 11.0788 0 11.2182 0.0230577 11.3341C0.117746 11.8101 0.489863 12.1822 0.965892 12.2769C1.08181 12.3 1.22121 12.3 1.5 12.3C1.77879 12.3 1.91819 12.3 2.03411 12.2769C2.51014 12.1822 2.88225 11.8101 2.97694 11.3341C3 11.2182 3 11.0788 3 10.8V9.79998C3 9.52119 3 9.38179 2.97694 9.26587C2.88225 8.78984 2.51014 8.41773 2.03411 8.32304C1.91819 8.29998 1.77879 8.29998 1.5 8.29998C1.22121 8.29998 1.08181 8.29998 0.965892 8.32304C0.489863 8.41773 0.117746 8.78984 0.0230577 9.26587Z" fill="black"/>
<path fill-rule="evenodd" clip-rule="evenodd" d="M29.8005 3.69638C32.0349 3.69648 34.1839 4.55504 35.8033 6.09459C35.9252 6.21345 36.1201 6.21195 36.2402 6.09123L37.4059 4.91482C37.4667 4.85359 37.5006 4.77065 37.5001 4.68435C37.4996 4.59806 37.4647 4.51552 37.4032 4.45501C33.1529 0.381697 26.4475 0.381697 22.1972 4.45501C22.1356 4.51547 22.1007 4.59799 22.1001 4.68428C22.0995 4.77058 22.1334 4.85354 22.1941 4.91482L23.3601 6.09123C23.4802 6.21214 23.6752 6.21364 23.7971 6.09459C25.4167 4.55493 27.5659 3.69638 29.8005 3.69638ZM29.8005 7.52377C31.0282 7.5237 32.212 7.98001 33.122 8.80405C33.2451 8.921 33.439 8.91846 33.559 8.79833L34.7233 7.62192C34.7846 7.56021 34.8187 7.4765 34.8178 7.38952C34.8169 7.30253 34.7812 7.21953 34.7186 7.15908C31.9474 4.58134 27.6559 4.58134 24.8848 7.15908C24.8222 7.21953 24.7865 7.30257 24.7857 7.38959C24.7848 7.4766 24.819 7.5603 24.8804 7.62192L26.0444 8.79833C26.1644 8.91846 26.3583 8.921 26.4813 8.80405C27.3908 7.98055 28.5737 7.52428 29.8005 7.52377ZM32.0381 10.3314C32.1003 10.2703 32.1346 10.1862 32.1328 10.0989C32.1311 10.0117 32.0934 9.92907 32.0286 9.87055C30.7424 8.78265 28.8586 8.78265 27.5724 9.87055C27.5076 9.92903 27.4699 10.0116 27.468 10.0989C27.4662 10.1861 27.5004 10.2702 27.5626 10.3314L29.577 12.3639C29.636 12.4236 29.7165 12.4572 29.8005 12.4572C29.8845 12.4572 29.965 12.4236 30.024 12.3639L32.0381 10.3314Z" fill="black"/>
</svg>
